# xmcd
#
# Track frame offsets:
#	150
#	32025
#	57425
#	85650
#	105080
#	118450
#	141872
#	161752
#	184755
#	202345
#	234025
#	252622
#	268185
#	290100
#	307780
#	327100
#
# Disc length: 4582 seconds
#
# Revision: 0
# Processed by: cddbd v1.4PL0 Copyright (c) Steve Scherf et al.
# Submitted via: EZCDDA 4.3.3.2
#
DISCID=ea11e410
DTITLE=Eagles - Alive
DYEAR=1900
DGENRE=
TTITLE0=Hotel California
TTITLE1=The heart of the matter
TTITLE2=New York Minute
TTITLE3=Tell me why
TTITLE4=Tequila Sunrise
TTITLE5=Life in the fast lane
TTITLE6=Take it easy
TTITLE7=Wasted time
TTITLE8=Help me through the night
TTITLE9=The last resort
TTITLE10=Love will keep us alive
TTITLE11=The girl from yesterday
TTITLE12=I can't tell you why
TTITLE13=In the city
TTITLE14=Learn to be still
TTITLE15=Desperado
EXTD=Bootleg live
EXTT0=
EXTT1=
EXTT2=
EXTT3=
EXTT4=
EXTT5=
EXTT6=
EXTT7=
EXTT8=
EXTT9=
EXTT10=
EXTT11=
EXTT12=
EXTT13=
EXTT14=
EXTT15=
PLAYORDER=
